<?xml version="1.0" encoding="UTF-8"?>
<svg width="32" height="32" viewBox="0 0 32 32" fill="none" xmlns="http://www.w3.org/2000/svg">
    <!-- 背景棋盘格 -->
    <rect width="32" height="32" fill="#1A1A1A"/>
    <path d="M4 4h8v8h-8zM20 4h8v8h-8zM4 20h8v8h-8zM20 20h8v8h-8z" fill="#2A2A2A"/>
    
    <!-- 问号符号 -->
    <path d="M16 8c-4.4 0-8 3.6-8 8s3.6 8 8 8 8-3.6 8-8-3.6-8-8-8zm0 14c-3.3 0-6-2.7-6-6s2.7-6 6-6 6 2.7 6 6-2.7 6-6 6z" fill="#FFD700"/>
    
    <!-- 问号点 -->
    <circle cx="16" cy="22" r="2" fill="#FFD700"/>
    
    <!-- 装饰性边框 -->
    <path d="M2 2h28v28H2z" stroke="#FFD700" stroke-width="1" fill="none"/>
    <path d="M6 6h20v20H6z" stroke="#FFD700" stroke-width="1" fill="none"/>
</svg> 